<?xml version="1.0" standalone="no"?>
<!DOCTYPE svg PUBLIC "-//W3C//DTD SVG 20010904//EN"
 "http://www.w3.org/TR/2001/REC-SVG-20010904/DTD/svg10.dtd">
<svg version="1.0" xmlns="http://www.w3.org/2000/svg"
 width="590.000000pt" height="590.000000pt" viewBox="0 0 590.000000 590.000000"
 preserveAspectRatio="xMidYMid meet">
<metadata>
Created by potrace 1.14, written by Peter Selinger 2001-2017
</metadata>
<g transform="translate(0.000000,590.000000) scale(0.100000,-0.100000)"
fill="#000000" stroke="none">
<path d="M5067 4643 c-4 -3 -7 -19 -7 -35 0 -29 -17 -37 -38 -16 -9 9 -18 7
-39 -8 -14 -11 -30 -27 -34 -35 -10 -18 -100 -208 -133 -280 -14 -31 -32 -62
-41 -69 -8 -7 -15 -23 -15 -36 0 -13 -4 -33 -9 -46 -5 -13 -15 -43 -22 -68 -7
-25 -20 -63 -30 -85 -9 -22 -24 -67 -32 -100 -8 -33 -35 -100 -60 -150 -25
-49 -55 -119 -67 -155 -13 -36 -33 -87 -45 -115 -13 -27 -33 -72 -45 -99 -12
-27 -30 -76 -41 -109 -11 -33 -30 -83 -43 -111 -52 -110 -86 -187 -86 -197 0
-5 -11 -31 -25 -57 -14 -26 -25 -56 -25 -68 0 -12 -7 -27 -15 -34 -8 -7 -15
-25 -15 -40 0 -15 -9 -39 -20 -52 -10 -14 -17 -28 -14 -31 3 -3 -1 -18 -9 -34
-22 -41 -33 -71 -57 -143 -12 -36 -25 -74 -30 -85 -25 -59 -62 -174 -64 -205
-2 -19 -7 -56 -11 -82 -6 -41 -3 -55 19 -98 14 -27 26 -61 26 -75 0 -22 3 -25
25 -19 21 5 25 3 25 -15 0 -12 6 -21 15 -21 18 0 20 -37 3 -42 -7 -3 -5 -12 8
-27 37 -44 46 -51 70 -51 14 0 34 -5 46 -11 16 -9 24 -7 42 10 12 12 27 21 34
21 6 0 16 9 22 20 6 11 19 20 29 20 10 0 25 8 35 19 14 16 15 20 2 30 -8 7
-23 11 -32 9 -28 -5 -29 30 -3 58 27 29 40 30 64 4 36 -40 64 -17 76 62 5 28
24 81 43 118 34 66 34 66 15 92 -19 25 -19 26 3 79 12 30 30 66 40 81 10 14
18 37 18 50 0 13 16 50 36 82 34 53 39 58 68 53 19 -2 40 2 56 13 14 9 39 26
57 38 18 12 43 22 55 22 13 0 32 6 43 13 41 26 202 64 229 54 27 -10 54 -79
44 -109 -7 -20 -4 -37 13 -73 18 -38 20 -51 11 -66 -15 -23 -16 -71 -2 -85 7
-7 7 -34 0 -84 -9 -63 -8 -79 7 -109 9 -20 16 -49 15 -64 -2 -17 8 -41 23 -61
27 -35 32 -62 14 -68 -8 -3 -8 -10 2 -26 17 -28 25 -28 40 1 7 12 17 25 23 29
8 5 8 13 -1 27 -14 22 -8 51 11 51 17 0 38 -52 26 -64 -17 -17 -11 -36 11 -36
15 0 19 -4 15 -16 -3 -9 -9 -34 -12 -55 -6 -33 -3 -44 16 -64 36 -39 55 -32
71 22 7 27 22 64 32 83 11 19 31 54 44 76 20 36 21 43 8 54 -8 7 -15 22 -15
34 0 26 39 66 63 66 20 0 23 -16 5 -23 -7 -2 -9 -8 -5 -13 4 -4 18 3 31 17 46
50 62 102 29 97 -13 -2 -17 3 -15 17 2 11 6 36 9 55 3 19 14 47 24 62 23 32
25 64 4 72 -8 3 -15 10 -15 16 0 6 7 18 15 26 18 18 22 199 4 209 -6 4 -8 33
-6 73 3 37 1 99 -4 137 -5 39 -10 79 -10 90 -1 38 -9 65 -19 65 -6 0 -10 -9
-10 -20 0 -28 -19 -25 -30 6 -15 38 -12 74 4 74 8 0 18 -5 21 -10 4 -6 11 -8
16 -5 14 9 11 35 -5 35 -11 0 -11 8 -3 40 9 33 8 43 -5 56 -11 11 -14 23 -9
33 23 45 28 82 20 128 -6 26 -10 85 -10 130 0 45 -5 85 -10 89 -6 3 -9 29 -8
57 4 60 -18 79 -23 20 l-3 -38 -19 40 c-10 22 -20 63 -21 90 -1 28 -6 58 -10
67 -4 10 -5 61 -3 113 2 79 6 98 21 106 23 14 24 153 1 207 -9 20 -16 52 -15
70 1 19 -1 42 -4 53 -11 34 -25 20 -25 -26 0 -25 -4 -45 -10 -45 -5 0 -10 7
-10 15 0 8 -4 15 -10 15 -5 0 -10 16 -10 35 0 24 -6 37 -20 45 -12 6 -20 21
-20 35 0 18 5 25 20 25 15 0 20 7 20 28 0 32 -16 52 -42 52 -11 0 -18 -7 -18
-20 0 -21 -15 -27 -25 -10 -3 6 -15 10 -26 10 -23 0 -58 18 -80 43 -18 19 -69
23 -86 6 -8 -8 -18 -6 -35 5 -14 9 -27 13 -31 10 -3 -4 -18 3 -33 15 -27 22
-46 26 -57 14z m378 -212 c7 -12 -24 -43 -36 -36 -13 9 -11 32 4 38 19 8 25 8
32 -2z m25 -91 c0 -5 -4 -10 -9 -10 -6 0 -13 5 -16 10 -3 6 1 10 9 10 9 0 16
-4 16 -10z m-32 -90 c2 -19 8 -39 13 -44 13 -14 11 -73 -3 -82 -6 -4 -17 1
-25 12 -8 10 -19 19 -26 19 -16 0 -19 71 -5 108 15 39 42 32 46 -13z m132
-115 c0 -8 -7 -15 -15 -15 -8 0 -15 7 -15 15 0 8 7 15 15 15 8 0 15 -7 15 -15z
m-70 -395 c0 -5 -4 -10 -10 -10 -5 0 -10 5 -10 10 0 6 5 10 10 10 6 0 10 -4
10 -10z m-360 -117 c0 -5 -4 -14 -9 -21 -4 -8 -3 -36 4 -65 14 -60 9 -317 -6
-332 -5 -5 -33 -9 -62 -10 -32 0 -61 -7 -77 -18 -13 -9 -37 -17 -53 -17 -27 0
-28 2 -22 31 4 17 20 50 36 74 16 24 29 54 29 67 0 26 25 84 40 93 5 3 11 20
15 38 12 61 67 167 87 167 10 0 18 -3 18 -7z m364 -115 c-4 -58 -8 -66 -29
-48 -19 16 -21 116 -2 123 22 8 35 -22 31 -75z m-299 52 c3 -5 -1 -10 -10 -10
-9 0 -13 5 -10 10 3 6 8 10 10 10 2 0 7 -4 10 -10z m310 -164 c0 -37 -22 -46
-31 -12 -3 15 -14 31 -23 36 -12 8 -8 10 19 8 31 -3 35 -6 35 -32z m-282 -20
c7 -16 -1 -26 -20 -26 -7 0 -13 9 -13 20 0 23 25 27 33 6z m305 -273 c5 -10 6
-47 2 -83 -5 -49 -3 -67 7 -73 7 -5 13 -25 13 -48 0 -21 5 -48 12 -58 18 -29
-5 -51 -53 -51 -39 0 -54 20 -28 36 7 4 9 22 6 45 -3 22 -1 42 5 45 6 4 8 28
4 62 -4 35 -2 59 5 68 9 11 8 18 -1 29 -13 16 -7 45 9 45 6 0 14 -8 19 -17z
m52 -415 c-1 -7 -7 -30 -14 -50 -9 -25 -10 -40 -3 -47 7 -7 6 -15 -2 -25 -7
-8 -10 -24 -6 -35 3 -10 1 -23 -6 -26 -14 -9 -29 13 -22 32 3 7 -1 21 -8 30
-11 13 -11 17 -1 20 7 3 12 23 12 53 0 29 5 50 13 53 22 10 37 7 37 -5z m-841
-11 c12 -15 5 -27 -16 -27 -7 0 -13 9 -13 20 0 23 13 26 29 7z m941 -157 c0
-5 -4 -10 -10 -10 -5 0 -10 5 -10 10 0 6 5 10 10 10 6 0 10 -4 10 -10z m-390
-90 c0 -5 -4 -10 -10 -10 -5 0 -10 5 -10 10 0 6 5 10 10 10 6 0 10 -4 10 -10z
m16 -82 c-3 -13 -6 -29 -6 -35 0 -7 -6 -13 -14 -13 -10 0 -14 11 -13 35 1 27
5 35 20 35 15 0 18 -5 13 -22z m22 -141 c3 -23 0 -28 -15 -25 -11 2 -19 14
-21 31 -3 23 0 28 15 25 11 -2 19 -14 21 -31z m-57 -40 c-13 -13 -26 -3 -16
12 3 6 11 8 17 5 6 -4 6 -10 -1 -17z m269 11 c0 -24 -18 -41 -34 -35 -14 5
-15 11 -6 27 12 22 40 27 40 8z m-200 -68 c0 -22 -20 -26 -38 -8 -19 19 -14
28 13 28 18 0 25 -5 25 -20z m-1235 -130 c-3 -5 -10 -10 -16 -10 -5 0 -9 5 -9
10 0 6 7 10 16 10 8 0 12 -4 9 -10z"/>
<path d="M3275 4452 c-16 -10 -48 -23 -70 -31 -104 -35 -189 -87 -279 -170
-50 -48 -110 -106 -131 -131 -22 -25 -42 -47 -45 -50 -33 -29 -133 -211 -167
-300 -36 -98 -43 -126 -43 -179 0 -29 -4 -60 -10 -70 -5 -10 -10 -54 -12 -97
-3 -73 -2 -79 17 -79 16 0 20 -7 20 -35 0 -25 -4 -34 -14 -32 -25 5 -5 -50 49
-139 29 -46 64 -100 78 -119 47 -62 184 -199 206 -206 11 -4 39 -19 61 -34 50
-34 343 -210 350 -210 11 0 92 -55 123 -84 39 -37 40 -55 5 -88 -46 -43 -165
-118 -203 -128 -19 -5 -85 -12 -145 -15 l-111 -7 -32 36 c-37 43 -91 151 -93
186 0 14 2 49 6 77 7 46 5 53 -11 59 -11 4 -27 14 -36 22 -16 13 -18 13 -24
-2 -4 -9 -17 -16 -35 -16 -37 0 -47 -20 -39 -80 8 -60 1 -75 -30 -65 -22 7
-23 10 -17 93 4 48 2 93 -4 103 -15 29 -68 47 -158 52 -82 5 -85 5 -113 -23
-20 -21 -28 -38 -28 -64 0 -20 -9 -55 -19 -79 -35 -79 -42 -127 -38 -262 5
-142 5 -142 49 -232 37 -77 103 -152 177 -202 57 -38 142 -81 161 -81 6 0 18
-4 28 -9 16 -10 100 -33 192 -53 25 -5 120 -12 211 -15 191 -5 209 -1 369 92
134 78 349 310 366 395 2 14 18 51 35 82 27 52 30 68 32 160 2 113 -9 155 -55
225 -15 23 -28 49 -28 58 0 9 -5 15 -12 13 -20 -7 -19 -22 5 -48 32 -35 52
-113 35 -140 -14 -22 -18 -23 -33 -12 -13 9 -52 97 -60 136 -3 17 -13 35 -22
41 -13 9 -13 16 -4 33 6 12 18 22 26 22 36 0 7 52 -72 129 -29 28 -56 51 -62
51 -5 0 -19 12 -31 28 -12 15 -55 47 -96 72 -121 74 -289 213 -328 272 -53 80
-90 190 -82 247 23 175 35 198 159 287 61 44 82 40 72 -14 -4 -20 -9 -69 -10
-109 -2 -46 -9 -80 -19 -95 -23 -32 -20 -48 9 -48 22 0 25 -4 25 -33 0 -44 20
-70 80 -101 61 -32 74 -32 94 -4 14 20 19 21 49 10 42 -15 66 -15 96 2 28 16
141 164 141 186 0 9 22 42 48 73 27 32 54 77 61 100 7 23 20 62 29 87 10 27
18 85 20 148 4 112 -11 172 -52 211 -11 11 -29 29 -39 40 -11 11 -39 21 -71
25 -44 6 -55 12 -64 32 -7 13 -24 29 -39 35 -16 7 -48 22 -73 35 -82 41 -132
54 -215 53 -56 0 -89 -6 -110 -17z m-221 -974 c4 -14 22 -80 31 -115 10 -36
-18 -19 -43 26 -29 52 -29 101 0 101 5 0 10 -6 12 -12z m491 -633 c29 -14 55
-50 55 -75 0 -17 -16 -11 -63 26 -68 53 -63 82 8 49z m-382 -36 c10 -11 22
-19 27 -19 6 0 10 -4 10 -10 0 -27 -72 6 -91 42 -10 18 -8 19 13 13 12 -4 31
-16 41 -26z m238 -88 c16 -16 45 -37 64 -45 59 -29 85 -66 45 -66 -20 0 -20
-1 -4 -25 18 -28 8 -33 -22 -10 -10 8 -27 15 -37 15 -30 0 -70 47 -63 75 5 19
1 27 -16 36 -40 21 -50 49 -18 49 11 0 34 -13 51 -29z m-111 4 c10 -12 10 -19
2 -27 -13 -13 -42 6 -42 28 0 19 24 18 40 -1z m190 0 c0 -8 -6 -15 -14 -15
-17 0 -28 14 -19 24 12 12 33 6 33 -9z m110 -86 c0 -5 -7 -9 -15 -9 -15 0 -20
12 -9 23 8 8 24 -1 24 -14z m214 -171 c31 -44 14 -89 -61 -164 -28 -28 -66
-29 -71 -2 -2 9 13 39 32 66 22 30 36 61 36 79 0 16 3 33 7 36 13 14 42 6 57
-15z"/>
<path d="M1927 4259 c-10 -6 -29 -8 -42 -5 -35 9 -98 -61 -106 -117 -4 -23
-12 -76 -19 -117 -6 -41 -17 -115 -23 -165 -7 -49 -16 -96 -21 -104 -5 -8 -10
-49 -12 -92 -1 -42 -7 -92 -12 -110 -18 -59 -32 -139 -32 -187 0 -26 -7 -65
-15 -87 -8 -22 -14 -60 -15 -85 0 -25 -5 -61 -10 -80 -6 -19 -12 -80 -15 -135
-2 -56 -9 -121 -14 -145 -6 -25 -11 -62 -11 -82 0 -65 -20 -42 -50 57 -7 22
-18 47 -24 55 -7 8 -20 42 -31 75 -10 33 -27 72 -37 87 -10 14 -18 33 -18 41
0 30 -28 79 -51 91 -17 8 -25 21 -27 46 -2 19 -10 42 -19 52 -8 9 -16 27 -18
40 -2 12 -13 48 -24 78 -12 30 -21 62 -21 70 0 9 -14 27 -31 39 -23 17 -29 28
-25 44 3 15 -7 41 -30 77 -18 30 -34 63 -34 75 0 11 -13 35 -29 54 -16 18 -34
51 -42 73 -9 30 -22 44 -51 59 -23 12 -38 27 -38 38 0 25 -45 54 -71 46 -11
-4 -24 -18 -29 -31 -10 -25 -43 -33 -56 -13 -3 6 -26 24 -50 39 -40 25 -49 27
-87 18 -23 -5 -65 -7 -92 -3 -50 6 -52 5 -81 -32 -45 -55 -54 -77 -54 -123 0
-23 -4 -50 -10 -60 -5 -10 -10 -61 -11 -114 -1 -67 -5 -98 -14 -106 -11 -9
-13 -28 -8 -76 6 -62 3 -76 -29 -137 -5 -10 -6 -27 -3 -38 4 -11 -3 -47 -14
-80 -12 -33 -21 -77 -20 -97 1 -20 -6 -86 -15 -147 -9 -60 -16 -138 -16 -172
0 -34 -4 -64 -9 -67 -11 -7 -22 -73 -25 -159 -2 -37 -8 -73 -14 -79 -7 -7 -7
-17 0 -33 8 -17 6 -30 -8 -56 -25 -49 -29 -75 -65 -409 -5 -52 -12 -124 -15
-160 -4 -36 -10 -69 -15 -74 -27 -29 2 -189 36 -203 23 -8 19 -43 -5 -43 -22
0 -26 -20 -8 -38 17 -17 45 -15 56 5 6 9 16 14 25 10 18 -7 44 -60 49 -97 2
-15 13 -30 31 -38 34 -17 36 -42 2 -42 -14 0 -25 -5 -25 -11 0 -7 12 -9 30 -7
17 3 33 1 36 -4 9 -13 24 -9 24 7 0 10 10 15 34 15 l33 0 7 73 c5 57 11 77 30
96 23 23 25 23 57 7 17 -9 34 -16 36 -16 10 0 1 59 -9 63 -10 4 -9 8 2 16 8 6
19 12 25 14 5 2 8 36 7 77 -2 54 2 87 17 124 10 28 24 92 31 141 6 50 15 108
20 130 19 89 29 155 40 245 6 52 15 122 20 155 5 33 14 112 20 175 6 63 16
134 22 156 5 23 9 59 8 80 -6 86 5 106 30 59 7 -13 21 -27 30 -30 21 -7 62
-82 49 -90 -15 -10 -10 -61 9 -86 10 -13 21 -32 25 -41 3 -10 11 -18 17 -18 5
0 10 -8 10 -18 0 -10 16 -32 35 -51 34 -31 46 -61 25 -61 -5 0 -10 5 -10 10 0
6 -4 10 -10 10 -16 0 -12 -26 10 -65 11 -20 20 -44 20 -53 0 -10 14 -31 30
-47 17 -16 30 -39 30 -51 0 -13 5 -26 10 -29 6 -3 10 -15 10 -25 0 -10 14 -31
30 -47 17 -15 30 -38 30 -51 0 -13 7 -30 15 -39 9 -9 13 -23 10 -35 -4 -12 2
-30 18 -51 13 -18 27 -42 31 -55 4 -12 16 -27 27 -32 13 -7 19 -21 19 -43 0
-50 37 -119 59 -112 22 7 48 -42 31 -59 -5 -5 -10 -17 -10 -25 0 -16 61 -102
113 -161 33 -36 55 -34 100 11 16 16 37 29 48 29 24 0 24 -5 -1 -40 -22 -31
-19 -36 42 -65 32 -15 41 -15 67 -4 16 7 32 21 34 31 3 10 14 18 25 18 35 0
52 11 52 35 0 34 -23 49 -49 33 -24 -14 -56 -1 -56 23 0 14 93 52 112 45 6 -3
13 -20 15 -38 2 -23 9 -34 22 -36 17 -4 18 1 13 40 -4 32 -2 51 9 66 8 12 12
27 9 32 -3 5 1 25 11 42 9 18 21 41 25 50 5 10 9 36 9 59 0 22 5 50 12 62 16
29 37 199 47 377 5 88 14 166 25 197 13 41 14 58 5 74 -6 12 -8 35 -5 53 3 17
11 65 16 106 6 41 15 107 21 145 5 39 14 106 19 150 8 73 15 105 36 173 3 12
2 28 -4 35 -7 8 -6 29 5 67 16 59 35 173 58 335 13 100 28 188 47 280 11 55
22 144 24 198 l5 97 -30 0 c-16 0 -33 5 -36 10 -18 29 -74 -23 -98 -92 -12
-33 -27 -18 -27 25 0 62 -44 102 -120 111 -33 3 -62 1 -73 -5z m-1447 -904 c0
-8 -4 -15 -10 -15 -5 0 -10 7 -10 15 0 8 5 15 10 15 6 0 10 -7 10 -15z m100
-44 c0 -11 -5 -23 -11 -27 -15 -9 -33 12 -26 30 9 23 37 20 37 -3z m108 -73
c7 -7 12 -21 12 -32 0 -11 11 -29 25 -41 33 -25 45 -115 24 -164 -24 -55 -55
-47 -51 14 1 17 -7 67 -18 111 -28 112 -26 146 8 112z m-124 -47 c10 -15 -12
-61 -29 -61 -19 0 -21 56 -2 63 19 8 25 8 31 -2z m211 -445 c18 -27 6 -76 -19
-76 -19 0 -22 12 -18 61 5 45 15 49 37 15z m-310 -162 c14 -22 15 -28 4 -35
-8 -5 -12 -22 -10 -44 2 -31 0 -36 -16 -33 -14 2 -19 14 -21 57 -5 84 11 104
43 55z m-90 -44 c-3 -5 -10 -10 -16 -10 -5 0 -9 5 -9 10 0 6 7 10 16 10 8 0
12 -4 9 -10z m5 -629 c0 -10 -6 -24 -14 -30 -11 -10 -17 -7 -30 10 -19 27 -13
39 20 39 17 0 24 -6 24 -19z m-40 -136 c14 -17 4 -78 -13 -72 -16 5 -31 51
-24 71 8 20 21 20 37 1z m-100 -105 c0 -5 -4 -10 -10 -10 -5 0 -10 5 -10 10 0
6 5 10 10 10 6 0 10 -4 10 -10z m81 -21 c7 -15 8 -24 1 -31 -14 -14 -46 17
-38 37 8 21 23 19 37 -6z m299 -45 c0 -8 -4 -14 -10 -14 -5 0 -10 9 -10 21 0
11 5 17 10 14 6 -3 10 -13 10 -21z m-289 -30 c11 -13 10 -17 -3 -25 -10 -5
-14 -17 -11 -29 4 -14 0 -20 -10 -20 -49 0 -61 31 -27 68 25 26 33 27 51 6z
m-111 -4 c0 -5 -4 -10 -10 -10 -5 0 -10 5 -10 10 0 6 5 10 10 10 6 0 10 -4 10
-10z m130 -95 c7 -8 9 -22 6 -31 -5 -13 -9 -14 -21 -4 -16 13 -21 50 -6 50 5
0 14 -7 21 -15z"/>
<path d="M5600 3930 c0 -13 5 -20 13 -17 6 2 12 10 12 17 0 7 -6 15 -12 18 -8
2 -13 -5 -13 -18z"/>
<path d="M5605 3869 c-8 -20 6 -78 20 -82 16 -4 17 56 1 78 -13 18 -15 18 -21
4z"/>
<path d="M518 1384 c-12 -11 4 -34 24 -34 13 0 18 6 16 17 -3 18 -29 29 -40
17z"/>
</g>
</svg>
